<mxfile host="65bd71144e">
    <diagram id="-42LTGkfEXVBEWXD6KAT" name="Page-1">
        <mxGraphModel dx="853" dy="623" grid="1" gridSize="10" guides="1" tooltips="1" connect="1" arrows="1" fold="1" page="1" pageScale="1" pageWidth="850" pageHeight="1100" math="0" shadow="0">
            <root>
                <mxCell id="0"/>
                <mxCell id="1" parent="0"/>
                <mxCell id="2" value="&lt;b&gt;&lt;font style=&quot;font-size: 14px;&quot;&gt;Monorepo&lt;/font&gt;&lt;/b&gt;" style="rounded=0;whiteSpace=wrap;html=1;verticalAlign=top;" vertex="1" parent="1">
                    <mxGeometry width="850" height="490" as="geometry"/>
                </mxCell>
                <mxCell id="4" value="apps" style="shape=folder;fontStyle=1;tabWidth=110;tabHeight=30;tabPosition=left;html=1;boundedLbl=1;labelInHeader=1;container=1;collapsible=0;" vertex="1" parent="1">
                    <mxGeometry x="30" y="40" width="180" height="180" as="geometry"/>
                </mxCell>
                <mxCell id="5" value="" style="html=1;strokeColor=none;resizeWidth=1;resizeHeight=1;fillColor=none;part=1;connectable=0;allowArrows=0;deletable=0;" vertex="1" parent="4">
                    <mxGeometry width="180" height="114.83544303797467" relative="1" as="geometry">
                        <mxPoint y="30" as="offset"/>
                    </mxGeometry>
                </mxCell>
                <mxCell id="22" value="web" style="shape=folder;fontStyle=1;tabWidth=60;tabHeight=20;tabPosition=left;html=1;boundedLbl=1;fontSize=14;" vertex="1" parent="4">
                    <mxGeometry x="20" y="40" width="140" height="60" as="geometry"/>
                </mxCell>
                <mxCell id="24" value="admin" style="shape=folder;fontStyle=1;tabWidth=60;tabHeight=20;tabPosition=left;html=1;boundedLbl=1;fontSize=14;" vertex="1" parent="4">
                    <mxGeometry x="20" y="110" width="140" height="60" as="geometry"/>
                </mxCell>
                <mxCell id="14" value="packages" style="shape=folder;fontStyle=1;tabWidth=110;tabHeight=30;tabPosition=left;html=1;boundedLbl=1;labelInHeader=1;container=1;collapsible=0;" vertex="1" parent="1">
                    <mxGeometry x="30" y="270" width="790" height="210" as="geometry"/>
                </mxCell>
                <mxCell id="15" value="" style="html=1;strokeColor=none;resizeWidth=1;resizeHeight=1;fillColor=none;part=1;connectable=0;allowArrows=0;deletable=0;" vertex="1" parent="14">
                    <mxGeometry width="790" height="180" relative="1" as="geometry">
                        <mxPoint y="30" as="offset"/>
                    </mxGeometry>
                </mxCell>
                <mxCell id="34" value="ui" style="shape=folder;fontStyle=1;tabWidth=60;tabHeight=20;tabPosition=left;html=1;boundedLbl=1;fontSize=14;" vertex="1" parent="14">
                    <mxGeometry x="630" y="40" width="140" height="60" as="geometry"/>
                </mxCell>
                <mxCell id="33" value="tailwindcss" style="shape=folder;fontStyle=1;tabWidth=60;tabHeight=20;tabPosition=left;html=1;boundedLbl=1;fontSize=14;" vertex="1" parent="14">
                    <mxGeometry x="427" y="40" width="140" height="60" as="geometry"/>
                </mxCell>
                <mxCell id="32" value="tsconfig" style="shape=folder;fontStyle=1;tabWidth=60;tabHeight=20;tabPosition=left;html=1;boundedLbl=1;fontSize=14;" vertex="1" parent="14">
                    <mxGeometry x="223" y="40" width="140" height="60" as="geometry"/>
                </mxCell>
                <mxCell id="35" value="postgres" style="shape=folder;fontStyle=1;tabWidth=60;tabHeight=20;tabPosition=left;html=1;boundedLbl=1;fontSize=14;" vertex="1" parent="14">
                    <mxGeometry x="120" y="120" width="140" height="60" as="geometry"/>
                </mxCell>
                <mxCell id="36" value="lib" style="shape=folder;fontStyle=1;tabWidth=60;tabHeight=20;tabPosition=left;html=1;boundedLbl=1;fontSize=14;" vertex="1" parent="14">
                    <mxGeometry x="325" y="120" width="140" height="60" as="geometry"/>
                </mxCell>
                <mxCell id="37" value="storage" style="shape=folder;fontStyle=1;tabWidth=60;tabHeight=20;tabPosition=left;html=1;boundedLbl=1;fontSize=14;" vertex="1" parent="14">
                    <mxGeometry x="530" y="120" width="140" height="60" as="geometry"/>
                </mxCell>
                <mxCell id="16" value="external packages" style="shape=folder;fontStyle=1;tabWidth=110;tabHeight=30;tabPosition=left;html=1;boundedLbl=1;labelInHeader=1;container=1;collapsible=0;" vertex="1" parent="1">
                    <mxGeometry x="330" y="40" width="490" height="180" as="geometry"/>
                </mxCell>
                <mxCell id="17" value="" style="html=1;strokeColor=none;resizeWidth=1;resizeHeight=1;fillColor=none;part=1;connectable=0;allowArrows=0;deletable=0;" vertex="1" parent="16">
                    <mxGeometry width="490" height="114.83544303797466" relative="1" as="geometry">
                        <mxPoint y="30" as="offset"/>
                    </mxGeometry>
                </mxCell>
                <mxCell id="25" value="..." style="shape=folder;fontStyle=1;tabWidth=60;tabHeight=20;tabPosition=left;html=1;boundedLbl=1;fontSize=14;" vertex="1" parent="16">
                    <mxGeometry x="40" y="70" width="140" height="60" as="geometry"/>
                </mxCell>
                <mxCell id="26" value="@energyleaf/proto" style="shape=folder;fontStyle=1;tabWidth=60;tabHeight=20;tabPosition=left;html=1;boundedLbl=1;fontSize=14;" vertex="1" parent="16">
                    <mxGeometry x="210" y="70" width="140" height="60" as="geometry"/>
                </mxCell>
                <mxCell id="19" value="Use" style="endArrow=open;endSize=12;dashed=1;html=1;fontSize=14;exitX=0.75;exitY=1;exitDx=0;exitDy=0;exitPerimeter=0;" edge="1" parent="1" source="4">
                    <mxGeometry x="-0.1239" y="10" width="160" relative="1" as="geometry">
                        <mxPoint x="340" y="380" as="sourcePoint"/>
                        <mxPoint x="210" y="300" as="targetPoint"/>
                        <Array as="points">
                            <mxPoint x="165" y="250"/>
                            <mxPoint x="210" y="250"/>
                        </Array>
                        <mxPoint as="offset"/>
                    </mxGeometry>
                </mxCell>
                <mxCell id="20" value="Use" style="endArrow=open;endSize=12;dashed=1;html=1;fontSize=14;" edge="1" parent="1" source="4" target="16">
                    <mxGeometry width="160" relative="1" as="geometry">
                        <mxPoint x="175" y="230" as="sourcePoint"/>
                        <mxPoint x="220.12" y="310.56000000000006" as="targetPoint"/>
                    </mxGeometry>
                </mxCell>
                <mxCell id="21" value="Use" style="endArrow=open;endSize=12;dashed=1;html=1;fontSize=14;exitX=0;exitY=0;exitDx=450;exitDy=30;exitPerimeter=0;" edge="1" parent="1" source="14" target="16">
                    <mxGeometry width="160" relative="1" as="geometry">
                        <mxPoint x="220" y="140" as="sourcePoint"/>
                        <mxPoint x="340" y="140" as="targetPoint"/>
                        <Array as="points">
                            <mxPoint x="480" y="260"/>
                            <mxPoint x="570" y="260"/>
                        </Array>
                    </mxGeometry>
                </mxCell>
                <mxCell id="31" value="mail" style="shape=folder;fontStyle=1;tabWidth=60;tabHeight=20;tabPosition=left;html=1;boundedLbl=1;fontSize=14;" vertex="1" parent="1">
                    <mxGeometry x="50" y="310" width="140" height="60" as="geometry"/>
                </mxCell>
            </root>
        </mxGraphModel>
    </diagram>
</mxfile>